<svg width="129" height="19" viewBox="0 0 129 19" fill="none" xmlns="http://www.w3.org/2000/svg">
<path d="M0 18.9152V17.3016L1.39327 17.1091L7.9589 0.269043H10.1386L16.5882 17.1091L17.9685 17.3016V18.9152H12.577V17.3016L13.9955 17.0583L12.7572 13.6263H5.23722L3.95999 17.0583L5.37852 17.3016V18.9152H0ZM6.02361 11.5132H11.9831L9.22316 3.93146L9.0682 3.50856H8.99105L8.8361 3.93146L6.02361 11.5132Z" fill="#07116B"/>
<path d="M19.9167 18.9152V17.3016L22.0193 16.9431V2.2541L19.9167 1.89558V0.269043H22.0193H28.0176C29.9782 0.269043 31.5107 0.689909 32.6159 1.53029C33.7211 2.37134 34.2734 3.63259 34.2734 5.3147C34.2734 6.14287 34.0085 6.88295 33.4801 7.53627C32.9511 8.1896 32.2527 8.67417 31.3837 8.98999C32.1401 9.14383 32.79 9.44474 33.332 9.89272C33.8733 10.3414 34.2931 10.8876 34.5894 11.5321C34.8857 12.1766 35.0345 12.8835 35.0345 13.6514C35.0345 15.3592 34.4754 16.6632 33.3572 17.5632C32.2391 18.4639 30.7257 18.9146 28.817 18.9146H19.9167V18.9152ZM24.5601 8.19637H28.675C29.5863 8.19637 30.3243 7.93409 30.8875 7.40886C31.4506 6.88362 31.7326 6.16862 31.7326 5.26386C31.7326 4.25677 31.4145 3.50314 30.7782 3.00366C30.142 2.50417 29.2218 2.25477 28.0183 2.25477H24.5614V8.19637H24.5601ZM24.5601 16.9431H28.817C29.9782 16.9431 30.8786 16.6598 31.5189 16.0919C32.1592 15.5239 32.4801 14.7195 32.4801 13.6778C32.4801 12.9438 32.362 12.3163 32.1251 11.7951C31.8882 11.2746 31.5278 10.8734 31.0417 10.5914C30.5557 10.3095 29.9434 10.1685 29.2034 10.1685H24.5594V16.9431H24.5601Z" fill="#07116B"/>
<path d="M36.3247 18.9152L44.2706 0.269043H46.4503L53.8802 18.9152H36.3247ZM39.7297 16.9431H50.5264L45.754 4.49533L45.367 3.49636H45.2898L44.9287 4.36724L39.7297 16.9431Z" fill="#07116B"/>
<path d="M55.4414 18.9152V17.3016L57.5439 16.9431V2.2541L55.4414 1.89558V0.269043H62.1873V1.89558L60.0847 2.2541V8.69586H69.0628V2.2541L66.9603 1.89558V0.269043H69.0628H71.6043H73.7068V1.89558L71.6043 2.2541V16.9431L73.7068 17.3016V18.9152H66.9603V17.3016L69.0628 16.9431V10.6809H60.0847V16.9431L62.1873 17.3016V18.9152H55.4414Z" fill="#07116B"/>
<path d="M75.7957 18.9152V17.3016L77.8982 16.9431V2.2541L75.7957 1.89558V0.269043H77.8982H84.4249C85.7663 0.269043 86.9104 0.501501 87.8559 0.967097C88.802 1.43269 89.5242 2.08331 90.0232 2.9203C90.5216 3.75728 90.7714 4.73456 90.7714 5.85281C90.7714 6.97986 90.5222 7.96188 90.0232 8.79819C89.5242 9.6345 88.802 10.2838 87.8559 10.7446C86.9097 11.2055 85.7663 11.4366 84.4249 11.4366H80.439V16.9431L82.5415 17.3016V18.9152H75.7957ZM80.4396 9.46439H84.4256C85.698 9.46439 86.651 9.12553 87.2831 8.44645C87.9152 7.76805 88.2313 6.91209 88.2313 5.87856C88.2313 4.84571 87.9152 3.98364 87.2831 3.29169C86.651 2.59973 85.6987 2.2541 84.4256 2.2541H80.4396V9.46439Z" fill="#07116B"/>
<path d="M93.0678 18.9153V16.9431H96.6148C95.8236 16.4138 95.1376 15.7394 94.5573 14.9201C93.9764 14.1007 93.5272 13.1932 93.2091 12.1983C92.891 11.2041 92.7319 10.1902 92.7319 9.15672V8.45257C92.7319 6.7874 93.0453 5.32148 93.6733 4.05346C94.3006 2.78544 95.1758 1.79326 96.298 1.07555C97.4203 0.357839 98.7207 0 100.2 0C101.679 0 102.982 0.358517 104.108 1.07555C105.234 1.79258 106.114 2.78476 106.746 4.05346C107.378 5.32148 107.694 6.7874 107.694 8.45257V9.15672C107.694 10.1896 107.535 11.2041 107.217 12.1983C106.899 13.1932 106.451 14.1 105.875 14.9201C105.299 15.7394 104.615 16.4145 103.825 16.9431H107.45V18.9153H101.039V16.3921C101.907 16.2471 102.647 15.8757 103.258 15.2779C103.869 14.6808 104.337 13.8676 104.664 12.8381C104.991 11.8093 105.154 10.582 105.154 9.15604V8.42613C105.154 7.0429 104.956 5.87112 104.561 4.91078C104.165 3.95045 103.598 3.22257 102.858 2.72716C102.118 2.23242 101.233 1.98437 100.201 1.98437C99.1767 1.98437 98.2955 2.23174 97.5562 2.72716C96.8169 3.22257 96.2509 3.95045 95.8598 4.91078C95.4686 5.87112 95.2734 7.0429 95.2734 8.42613V9.15604C95.2734 10.5908 95.4413 11.8222 95.7765 12.851C96.1117 13.8798 96.5909 14.693 97.2148 15.2908C97.8381 15.8885 98.5883 16.2559 99.4655 16.3921V18.9153H93.0678Z" fill="#07116B"/>
<path d="M110.017 18.9152V17.3016L112.12 16.9431V2.2541L110.017 1.89558V0.269043H112.12H114.686L123.897 14.8042L123.974 14.7784V2.2541L121.665 1.89558V0.269043H126.309H128.411V1.89558L126.309 2.2541V18.9152H123.987L114.532 4.30353L114.455 4.32928V16.9431L116.764 17.3016V18.9152H110.017Z" fill="#07116B"/>
</svg>
