<svg width="794" height="384" viewBox="0 0 794 384" fill="none" xmlns="http://www.w3.org/2000/svg">
<g clip-path="url(#clip0_416_22)">
<path d="M792.525 188.499C792.714 185.319 794.209 168.511 792.285 161.789C791.972 158.653 791.947 151.189 790.48 147.317C789.973 142.793 789.004 138.373 787.669 134.034C787.569 133.77 787.464 133.513 787.352 133.257C787.359 133.266 787.373 133.273 787.387 133.281C786.041 127.276 783.222 121.531 779.868 116.364C778.55 112.497 771.45 103.646 770.218 101.952C768.062 98.6892 765.606 95.6942 762.766 93.0312C762.456 92.7162 762.142 92.4012 761.832 92.0872C761.356 90.8682 760.589 90.3082 759.679 90.0432C759.761 90.0292 759.841 90.0192 759.926 90.0122C757.82 87.5452 755.546 85.2572 752.989 83.2792C753.055 83.4062 753.091 83.5262 753.108 83.6382C752.238 81.1142 747.792 79.0102 745.903 77.3932L745.268 77.1092C743.817 75.9112 742.647 74.3372 740.843 73.6102C740.596 73.4322 740.35 73.2542 740.1 73.0762C740.079 73.1042 740.068 73.1342 740.054 73.1602C739.75 72.7052 739.444 72.0942 738.729 72.1432C732.803 67.7182 726.602 63.7542 720.125 60.2362C719.336 59.7112 718.646 58.9872 717.617 58.9552C717.596 58.9992 717.582 59.0362 717.56 59.0782C716.644 57.7902 713.804 56.0892 712.173 56.0342C712.25 55.9932 712.331 55.9582 712.412 55.9232C708.36 53.4432 704.164 51.2422 699.866 49.2412C699.781 49.1852 699.682 49.1342 699.555 49.0952C696.584 47.9432 691.955 43.7802 689.076 44.4622C689.16 44.2962 689.273 44.1522 689.429 44.0412C683.95 41.1942 678.362 38.5962 672.729 36.0892C672.659 36.2822 672.587 36.4762 672.517 36.6692C672.514 36.6742 672.51 36.6792 672.506 36.6832C667.447 31.8262 658.012 29.5092 651.32 26.2172C651.328 26.2792 651.341 26.3442 651.355 26.4052C649.537 24.3972 642.484 22.5442 641.032 21.6912C634.062 18.3552 626.896 15.5592 619.582 13.1442C609.893 9.22623 599.774 6.19823 589.465 4.56323C585.152 3.47123 580.783 2.73623 576.352 2.45823C571.659 1.25523 566.86 0.987233 562.057 0.796233C557.924 0.261232 553.782 0.0582325 549.617 0.238232C546.492 -0.270768 543.321 0.169232 540.231 0.310232C540.276 0.284232 540.323 0.259232 540.372 0.234232C539.569 0.0162325 538.786 0.113232 538.005 0.343232C537.198 0.144232 536.405 0.128233 535.64 0.535233C535.285 0.540233 534.933 0.544233 534.574 0.549233C533.326 0.248233 532.099 0.311233 530.895 0.760233C527.935 0.651232 524.994 0.820232 522.086 1.43523V1.43623C517.738 1.65823 513.433 2.21423 509.184 3.21023C506.527 3.31523 503.955 4.15923 501.46 4.82523C501.545 4.77923 501.63 4.74623 501.722 4.73223C500.868 4.54523 500.158 4.93123 499.446 5.31023C498.795 5.62323 498.153 5.97623 497.392 5.78623C497.292 5.79323 497.204 5.80723 497.121 5.82323C494.789 6.13023 492.529 6.72923 490.359 7.66923C490.355 7.67423 490.355 7.67823 490.355 7.68323C489.376 7.50923 488.587 8.03023 487.766 8.42323C486.543 8.49223 485.444 8.95523 484.383 9.54423C484.429 9.64123 484.425 9.77523 484.404 9.91823C484.386 9.81223 484.38 9.68923 484.383 9.54423C481.37 10.3442 478.425 11.3252 475.635 12.7472C474.595 13.0112 473.792 13.3672 473.179 13.7652C466.784 16.1122 460.697 19.2552 454.833 22.6972C453.494 23.3432 452.039 23.7972 451.014 25.0002C450.872 24.9982 450.767 25.0552 450.69 25.1672C444.757 28.5262 439.225 32.4802 434.095 37.0242C434.448 37.0382 434.623 37.1562 434.708 37.3242C432.337 36.5542 425.983 44.3792 424.089 45.7672C424.11 45.8162 424.138 45.8602 424.159 45.9062C423.116 46.4482 422.165 47.2642 421.724 47.9992C420.692 48.7442 419.789 49.6272 419.046 50.6802V50.6792C417.059 52.2932 415.371 54.2072 413.796 56.2282H413.793C407.303 63.1022 401.602 70.6032 396.796 78.8162V78.8182C392.328 85.7542 388.432 93.0062 385.324 100.694C385.423 100.74 385.543 100.803 385.67 100.876C384.4 101.855 383.119 104.94 382.78 106.908C382.72 107.067 382.66 107.223 382.6 107.382H382.597C379.94 113.689 377.96 120.215 376.501 126.917C376.501 126.92 376.497 126.926 376.497 126.926C375.954 128.14 375.69 129.423 375.606 130.751C375.655 130.728 375.694 130.704 375.739 130.679C374.781 134.613 373.491 138.545 373.403 142.699C372.174 149.113 371.684 155.599 371.606 162.125V162.128C371.307 163.465 371.272 164.808 371.494 166.16C371.054 178.058 371.962 190.066 374.083 201.781C375.282 205.239 374.33 213.603 377.61 215.367C377.342 215.393 377.071 215.411 376.796 215.402C376.628 216.232 376.994 216.925 377.339 217.622V217.623L377.343 217.622L377.357 217.608C377.382 219.197 377.843 220.675 378.446 222.118C378.474 222.049 378.496 221.982 378.523 221.913C378.879 224.069 379.136 226.259 380.214 228.229C380.264 228.095 380.292 227.959 380.299 227.824C380.306 227.952 380.288 228.085 380.214 228.229C382.966 238.464 386.788 248.28 391.249 257.844C391.349 258.302 391.503 258.683 391.7 259.016C392.313 261.12 393.221 263.08 394.448 264.893C394.491 265.002 394.547 265.097 394.61 265.184C394.603 265.184 394.592 265.185 394.583 265.185C396.812 270.33 399.22 275.378 402.319 280.048C402.333 280.039 402.347 280.035 402.368 280.028C402.435 280.238 402.538 280.476 402.686 280.753C404.465 284.998 407.293 288.441 409.983 291.907C409.866 291.898 409.754 291.891 409.633 291.893C412.227 296.249 415.199 300.314 418.54 304.096C419.012 304.688 419.484 305.284 419.963 305.88C419.956 305.878 419.953 305.876 419.949 305.876C420.351 306.699 420.904 307.383 421.619 307.925C424.41 311.339 427.369 314.728 430.621 317.711C435.914 324.122 442.315 328.893 448.883 333.404C448.576 333.369 448.266 333.345 447.945 333.339C451.609 336.589 455.47 339.571 459.597 342.185C461.132 343.684 463.867 345.236 464.738 345.74C466.865 347.438 469.134 348.913 471.551 350.146C471.551 350.14 471.548 350.137 471.548 350.13C473.81 351.986 476.527 353.328 479.069 354.741H479.073C481.909 356.599 484.883 358.201 487.983 359.551C488.927 360.289 489.963 360.826 491.119 361.126C491.676 361.582 492.852 362.327 493.599 362.281C493.606 362.301 493.606 362.32 493.614 362.343C494.325 362.853 495.291 363.381 496.253 363.633C497.588 364.429 498.962 365.126 500.452 365.574C505.628 368.049 510.956 370.122 516.413 371.846C526.813 375.47 537.405 378.634 548.335 380.059C548.123 379.945 547.964 379.787 547.841 379.605C548.007 379.752 548.176 379.906 548.335 380.059C551.755 380.841 555.219 381.284 558.718 381.504C572.022 383.579 585.886 383.628 599.148 382.777C599.919 382.953 600.691 382.789 601.457 382.676C601.442 382.656 601.428 382.641 601.414 382.623C601.731 382.599 602.049 382.577 602.365 382.553C605.036 382.222 611.166 382.634 615.092 381.487C620.148 381.211 625.133 380.413 630.067 379.264C632.635 379.006 635.139 378.455 637.599 377.656C636.891 377.117 636.901 376.751 637.24 376.438C638.571 381.246 675.173 364.244 679.305 361.239C681.782 359.451 699.045 351.444 698.299 347.833C698.51 348.129 698.488 348.589 698.072 349.316C699.023 348.856 699.939 348.339 700.617 347.475C701.314 347.219 701.617 346.872 701.701 346.47C701.709 346.518 701.716 346.568 701.722 346.616C701.954 346.447 702.187 346.278 702.419 346.109C702.392 346.057 702.37 346.005 702.346 345.952C702.776 346.1 703.227 345.91 703.589 345.161L703.744 345.104L703.847 344.972C706.042 343.582 708.036 341.928 709.882 340.085C710.841 339.526 711.707 338.859 712.356 337.927C714.674 336.207 716.789 334.258 718.754 332.139C718.923 332.022 719.071 331.859 719.184 331.682C720.037 331.2 720.745 330.558 721.248 329.695C721.252 329.695 721.252 329.695 721.252 329.695C723.989 327.358 726.495 324.766 728.946 322.119C732.389 318.907 735.355 315.243 738.325 311.589C738.125 311.604 737.956 311.607 737.811 311.602C740.837 310.679 765.211 276.02 765.606 273.568C768.262 269.312 773.682 263.608 773.844 258.702C773.949 258.961 774.051 259.223 774.228 259.412C775.971 256.095 782.286 245.912 781.144 242.873C781.363 242.901 781.588 242.932 781.817 242.947C783.096 240.14 784.083 237.232 784.688 234.193C784.812 233.771 784.935 233.351 785.055 232.928C785.168 232.514 785.28 232.102 785.397 231.686C788.014 222.522 790.382 213.131 791.09 203.613C790.945 201.61 792.221 199.807 791.872 197.775V197.773C792.164 196.582 792.32 195.381 792.179 194.153C792.504 192.279 792.596 190.395 792.525 188.499ZM380.557 184.595C380.516 184.54 380.487 184.486 380.473 184.428C380.53 184.426 380.586 184.419 380.643 184.412C380.613 184.47 380.586 184.531 380.557 184.595ZM387.896 102.653C387.865 102.524 387.83 102.401 387.794 102.285C387.892 102.438 387.977 102.588 388.047 102.738C387.998 102.708 387.949 102.681 387.896 102.653ZM388.637 203.362C388.841 203.346 389.041 203.352 389.242 203.38C389.049 203.427 388.844 203.429 388.637 203.362ZM390.219 107.922C390.211 107.906 390.207 107.892 390.204 107.878C390.239 107.896 390.271 107.911 390.303 107.927C390.275 107.926 390.246 107.924 390.219 107.922ZM391.381 107.344C391.381 107.341 391.385 107.335 391.389 107.334C391.392 107.337 391.395 107.343 391.395 107.348C391.392 107.346 391.385 107.346 391.381 107.344ZM393.191 95.4572C393.177 95.4072 393.164 95.3602 393.153 95.3122C393.191 95.3452 393.23 95.3862 393.269 95.4232C393.241 95.4342 393.217 95.4442 393.191 95.4572ZM395.961 105.645C395.961 105.643 395.961 105.643 395.961 105.643H395.965C395.965 105.645 395.961 105.645 395.961 105.645ZM396.666 153.191C396.666 153.191 396.666 153.186 396.666 153.184C396.666 153.177 396.673 153.17 396.677 153.164C396.673 153.174 396.666 153.183 396.666 153.191ZM691.793 59.8342C691.801 59.8352 691.807 59.8392 691.818 59.8432C691.81 59.8482 691.806 59.8522 691.8 59.8592C691.797 59.8502 691.793 59.8432 691.793 59.8342ZM690.408 77.8962C690.313 77.8682 690.228 77.8222 690.151 77.7682C690.236 77.8092 690.327 77.8512 690.408 77.8962ZM670.149 51.7522C670.191 51.7502 670.234 51.7392 670.272 51.7312C670.265 51.7592 670.258 51.7882 670.251 51.8172C670.217 51.7982 670.182 51.7762 670.149 51.7522ZM668.268 46.5622C668.329 46.5832 668.399 46.5992 668.473 46.6132C668.476 46.6352 668.487 46.6572 668.494 46.6812C668.421 46.6902 668.343 46.6922 668.259 46.6902C668.28 46.6762 668.301 46.6662 668.319 46.6512C668.3 46.6202 668.285 46.5902 668.268 46.5622ZM655.383 42.7952C655.387 42.8022 655.391 42.8092 655.394 42.8132C655.391 42.8222 655.383 42.8312 655.379 42.8382C655.373 42.8352 655.365 42.8332 655.356 42.8312C655.365 42.8182 655.376 42.8082 655.383 42.7952ZM651.232 33.1062C651.225 33.3772 651.137 33.5882 650.898 33.7052C650.886 33.7102 650.88 33.7142 650.869 33.7192C651.008 33.5222 651.131 33.3182 651.232 33.1062ZM629.713 25.1672C629.74 25.3722 629.769 25.5602 629.797 25.7382C629.709 25.5422 629.677 25.3502 629.713 25.1672ZM580.598 8.03323C580.619 8.13023 580.647 8.21623 580.675 8.30423C580.478 8.24423 580.28 8.19123 580.083 8.14323C580.266 8.11023 580.442 8.07123 580.598 8.03323ZM535.4 3.63423C535.407 3.64323 535.414 3.64823 535.418 3.65723C535.414 3.65923 535.407 3.66423 535.4 3.66623C535.4 3.65323 535.4 3.64623 535.4 3.63423ZM525.549 4.19923C525.45 4.21723 525.352 4.22523 525.256 4.22923C525.295 3.96723 525.408 4.02723 525.549 4.19923ZM420.688 50.3002C420.681 50.3122 420.67 50.3242 420.664 50.3372C420.646 50.3162 420.632 50.2952 420.611 50.2742C420.639 50.2812 420.663 50.2922 420.688 50.3002ZM416.309 59.1352C416.248 59.1492 416.186 59.1582 416.116 59.1482C416.108 59.1342 416.098 59.1212 416.091 59.1072C416.164 59.1172 416.234 59.1262 416.309 59.1352ZM397.367 178.76C397.363 178.661 397.363 178.561 397.363 178.462C397.406 178.496 397.455 178.529 397.504 178.565C397.455 178.628 397.409 178.695 397.367 178.76ZM399.111 172.602C399.111 172.563 399.107 172.524 399.103 172.488C399.118 172.384 399.124 172.278 399.118 172.169C399.133 172.169 399.142 172.169 399.153 172.169C399.153 172.311 399.139 172.455 399.111 172.602ZM403.663 163.055C403.663 163.046 403.66 163.034 403.656 163.021C403.663 163.028 403.674 163.034 403.68 163.041C403.678 163.046 403.67 163.05 403.663 163.055ZM407.623 167.699C407.652 167.71 407.68 167.724 407.708 167.734C407.693 167.739 407.68 167.748 407.666 167.754C407.652 167.734 407.638 167.718 407.623 167.699ZM407.684 175.084C407.68 175.084 407.68 175.084 407.68 175.084C407.723 175.042 407.768 175.001 407.815 174.959C407.764 175.017 407.723 175.061 407.684 175.084ZM409.152 179.07C409.202 178.959 409.252 178.85 409.307 178.74C409.339 178.832 409.37 178.92 409.406 179.008C409.325 179.014 409.24 179.035 409.152 179.07ZM411.904 169.415C411.893 169.338 411.886 169.269 411.879 169.197C411.93 169.225 411.983 169.255 412.035 169.287C411.992 169.325 411.95 169.367 411.904 169.415ZM412.831 176.409C412.838 176.418 412.852 176.427 412.863 176.435C412.886 176.537 412.916 176.57 412.971 176.521C413.031 176.57 413.091 176.623 413.155 176.678C413.162 176.844 413.162 177.05 413.19 177.164C413.07 176.875 412.951 176.627 412.831 176.409ZM415.297 170.622C415.22 170.608 415.15 170.583 415.078 170.551C415.152 170.555 415.226 170.558 415.301 170.558C415.312 170.586 415.319 170.614 415.326 170.641C415.312 170.634 415.305 170.625 415.297 170.622ZM416.357 203.554C416.361 203.549 416.357 203.545 416.357 203.542C416.378 203.544 416.396 203.547 416.418 203.549C416.4 203.552 416.379 203.552 416.357 203.554ZM416.742 285.175C416.738 285.159 416.734 285.147 416.734 285.133C416.742 285.147 416.749 285.157 416.755 285.17C416.749 285.172 416.745 285.173 416.742 285.175ZM417.256 225.675C417.193 225.508 417.123 225.357 417.049 225.214C417.273 225.33 417.309 225.488 417.256 225.675ZM417.771 172.542C417.715 172.516 417.663 172.498 417.602 172.489C417.602 172.486 417.602 172.482 417.602 172.478C417.655 172.496 417.715 172.505 417.771 172.519C417.771 172.524 417.771 172.535 417.771 172.542ZM427.28 267.294C427.269 267.285 427.261 267.278 427.256 267.272C427.27 267.279 427.28 267.286 427.291 267.293C427.291 267.292 427.283 267.294 427.28 267.294ZM436.416 275.075C436.423 275.068 436.427 275.065 436.43 275.055C436.43 275.063 436.43 275.066 436.43 275.07C436.427 275.072 436.423 275.073 436.416 275.075ZM437.67 312.731C437.537 312.539 437.505 312.327 437.762 312.091C437.727 312.283 437.709 312.507 437.67 312.731ZM438.738 281.303C438.713 281.31 438.699 281.316 438.677 281.323C438.628 281.05 438.6 280.844 438.565 280.694C438.621 280.726 438.685 280.768 438.745 280.826C438.984 280.967 439.002 281.222 438.738 281.303ZM448.127 299.714C448.086 299.74 448.054 299.777 448.018 299.811C447.987 299.607 447.955 299.406 447.916 299.21C448.021 299.381 448.121 299.552 448.223 299.729C448.191 299.721 448.162 299.72 448.127 299.714ZM452.066 297.485C451.964 297.342 451.886 297.205 451.827 297.073C451.848 297.075 451.862 297.079 451.883 297.079C451.891 297.073 451.891 297.068 451.895 297.062C451.939 297.2 451.996 297.341 452.066 297.485ZM456.496 332.07C456.668 332.017 456.844 331.96 457.014 331.895C456.883 332.039 456.676 332.109 456.496 332.07ZM519.623 360.94C519.623 360.924 519.623 360.91 519.623 360.894C519.637 360.903 519.65 360.914 519.665 360.922C519.65 360.928 519.637 360.934 519.623 360.94ZM542.161 367.481C542.15 367.472 542.143 367.467 542.137 367.459C542.148 367.459 542.158 367.459 542.172 367.46C542.165 367.468 542.165 367.475 542.161 367.481ZM546.653 365.61C546.632 365.564 546.611 365.517 546.59 365.471C546.59 365.467 546.598 365.465 546.598 365.463C546.625 365.513 546.654 365.564 546.69 365.608C546.675 365.61 546.664 365.612 546.653 365.61ZM604.129 378.727C604.147 378.679 604.161 378.621 604.172 378.556C604.19 378.628 604.211 378.693 604.235 378.755C604.199 378.747 604.164 378.738 604.129 378.727ZM618.593 378.508C618.617 378.355 618.628 378.196 618.628 378.032C618.67 378.046 618.709 378.063 618.748 378.076C618.733 378.298 618.678 378.429 618.593 378.508ZM627.908 371.7C628.017 371.511 628.119 371.316 628.215 371.114C628.166 371.34 628.057 371.531 627.908 371.7ZM632.738 370.749C632.738 370.735 632.735 370.725 632.735 370.712C632.77 370.718 632.805 370.722 632.84 370.729C632.806 370.733 632.773 370.742 632.738 370.749ZM694.09 84.7552C694.048 84.7342 694.013 84.7162 693.971 84.6952C694.048 84.6562 694.14 84.6122 694.217 84.5772C694.225 84.5792 694.238 84.5792 694.249 84.5802C694.186 84.6392 694.133 84.6982 694.09 84.7552ZM703.212 68.8362C703.188 68.8202 703.166 68.8042 703.145 68.7872C703.11 68.7202 703.082 68.6552 703.054 68.5902C703.117 68.6712 703.181 68.7542 703.244 68.8372C703.233 68.8362 703.223 68.8362 703.212 68.8362ZM704.949 77.2992C704.886 77.0372 704.91 76.8712 705.153 76.8902C705.083 77.0262 705.016 77.1622 704.949 77.2992ZM713.666 81.2542C713.666 81.2632 713.658 81.2732 713.658 81.2822C713.623 81.2612 713.592 81.2372 713.56 81.2102C713.574 81.2052 713.581 81.1962 713.591 81.1872C713.622 81.2102 713.652 81.2292 713.679 81.2452C713.68 81.2492 713.673 81.2512 713.666 81.2542ZM713.405 72.8952C713.482 72.8652 713.56 72.8302 713.637 72.7962C713.679 72.8562 713.714 72.9182 713.749 72.9802C713.62 72.9232 713.504 72.8972 713.405 72.8952ZM714.215 84.5702C714.201 84.5472 714.184 84.5242 714.174 84.4982C714.192 84.4862 714.209 84.4772 714.23 84.4632C714.223 84.4982 714.215 84.5352 714.215 84.5702ZM716.46 66.3542C716.344 66.2962 716.245 66.2492 716.153 66.2172C716.252 66.1552 716.365 66.1022 716.492 66.0662C716.478 66.1672 716.471 66.2632 716.46 66.3542ZM720.342 89.4602C720.448 89.3862 720.536 89.3072 720.621 89.2302C720.663 89.3792 720.726 89.5262 720.818 89.6702C720.648 89.6102 720.49 89.5432 720.342 89.4602ZM736.208 94.5252C736.162 94.5162 736.123 94.5112 736.078 94.5072C736.099 94.4822 736.116 94.4612 736.138 94.4352C736.166 94.4612 736.191 94.4902 736.215 94.5182C736.215 94.5212 736.215 94.5232 736.208 94.5252ZM737.596 311.584C736.815 311.474 737.184 310.95 737.748 310.309C737.49 311.056 737.448 311.466 737.596 311.584ZM739.637 82.3732C739.76 82.1832 739.876 81.9892 739.979 81.7902C740.098 82.0772 739.908 82.2352 739.637 82.3732ZM741.373 114.907C741.422 114.86 741.469 114.81 741.521 114.759C741.563 114.805 741.598 114.865 741.633 114.931C741.543 114.921 741.457 114.913 741.373 114.907ZM742.564 104.897C742.585 104.874 742.595 104.856 742.609 104.835C742.733 104.936 742.859 105.038 742.986 105.136C742.846 105.1 742.705 105.024 742.564 104.897ZM755.903 108.361C755.991 108.373 756.086 108.375 756.199 108.37C756.086 108.461 755.988 108.451 755.903 108.361ZM757.535 133.649C757.538 133.6 757.538 133.552 757.535 133.508C757.58 133.517 757.623 133.527 757.668 133.532C757.623 133.576 757.58 133.612 757.535 133.649ZM759.998 168.176C759.983 168.176 759.977 168.174 759.966 168.171C759.92 168.099 759.871 168.028 759.821 167.958C759.933 167.976 760.043 167.98 760.152 167.974C760.1 168.041 760.047 168.107 759.998 168.176ZM760.709 109.633C761.041 109.827 761.364 110.026 761.688 110.215C761.238 110.068 760.889 109.876 760.709 109.633ZM762.013 264.093C762.01 264.04 762.006 263.991 762.002 263.942C762.02 263.951 762.041 263.959 762.063 263.968C762.048 264.007 762.027 264.049 762.013 264.093ZM764.447 137.585C764.443 137.585 764.443 137.584 764.437 137.582V137.587C764.443 137.587 764.443 137.589 764.447 137.589C764.443 137.599 764.443 137.61 764.437 137.619C764.437 137.608 764.437 137.598 764.437 137.587C764.437 137.587 764.433 137.585 764.429 137.584V137.579C764.437 137.58 764.437 137.58 764.44 137.582C764.443 137.58 764.447 137.579 764.451 137.575C764.451 137.578 764.451 137.583 764.447 137.585ZM767.428 157.247C767.425 157.227 767.418 157.212 767.418 157.196C767.425 157.205 767.439 157.214 767.453 157.226C767.442 157.231 767.438 157.238 767.428 157.247ZM767.664 140.881C767.725 140.839 767.784 140.8 767.848 140.76C767.855 140.791 767.875 140.823 767.89 140.857C767.816 140.862 767.742 140.869 767.664 140.881ZM768.588 231.855C768.576 231.855 768.563 231.853 768.553 231.853C768.567 231.85 768.574 231.85 768.588 231.848C768.588 231.848 768.588 231.852 768.588 231.855ZM768.816 184.431C768.812 184.42 768.805 184.41 768.802 184.399C768.798 184.399 768.798 184.401 768.794 184.402C768.805 184.318 768.812 184.238 768.812 184.166C768.833 184.182 768.862 184.194 768.882 184.208C768.865 184.278 768.845 184.352 768.816 184.431ZM770.127 206.623C770.145 206.635 770.158 206.646 770.176 206.655C770.18 206.671 770.18 206.685 770.184 206.699C770.166 206.674 770.145 206.647 770.127 206.623ZM770.335 192.51C770.335 192.505 770.335 192.5 770.332 192.494C770.335 192.503 770.342 192.512 770.346 192.519C770.342 192.517 770.338 192.514 770.335 192.51ZM773.03 195.906C772.97 195.89 772.903 195.88 772.836 195.875C772.857 195.787 772.879 195.7 772.903 195.614C772.938 195.682 772.98 195.755 773.027 195.831C773.033 195.825 773.041 195.822 773.048 195.818C773.041 195.849 773.033 195.878 773.03 195.906ZM774.027 198.579C774.027 198.542 774.027 198.501 774.027 198.464C774.069 198.492 774.105 198.519 774.146 198.547C774.105 198.556 774.069 198.568 774.027 198.579ZM774.774 211.43C774.753 211.389 774.732 211.346 774.711 211.302C774.753 211.328 774.795 211.355 774.838 211.379C774.816 211.397 774.795 211.413 774.774 211.43ZM777.459 120.059C777.459 120.055 777.459 120.054 777.459 120.054C777.459 120.052 777.463 120.052 777.466 120.052C777.463 120.053 777.459 120.057 777.459 120.059ZM779.957 117.872C780.018 117.775 780.056 117.659 780.066 117.521C780.108 117.63 780.15 117.74 780.193 117.851C780.105 117.869 780.023 117.875 779.957 117.872ZM781.201 170.211H781.197C781.201 170.204 781.197 170.199 781.201 170.193C781.201 170.199 781.201 170.206 781.201 170.211ZM781.219 170.049C781.229 169.996 781.243 169.945 781.264 169.892C781.18 169.829 781.102 169.762 781.032 169.693C781.187 169.755 781.343 169.817 781.491 169.88C781.405 169.927 781.313 169.98 781.219 170.049ZM786.387 151.381C786.412 151.241 786.43 151.101 786.437 150.962C786.532 150.941 786.61 150.939 786.676 150.95C786.584 151.097 786.486 151.24 786.387 151.381ZM787.335 149.629C787.317 149.525 787.338 149.43 787.408 149.344C787.388 149.441 787.363 149.536 787.335 149.629ZM788.941 145.122C788.91 145.104 788.878 145.088 788.845 145.073C788.881 145.069 788.909 145.064 788.945 145.06C788.941 145.083 788.945 145.1 788.941 145.122ZM791.45 159.861C791.326 159.685 791.196 159.535 791.058 159.412C791.302 159.211 791.558 158.952 791.829 158.626C791.707 159.068 791.566 159.48 791.45 159.861Z" fill="#F36E23"/>
<path d="M589.313 152.317C589.313 152.317 577.813 84.8169 623.313 81.8169V74.8169H635.813L638.813 84.3169C638.813 84.3169 651.313 89.3169 661.813 97.8169C661.813 97.8169 679.813 107.817 685.313 109.317C690.813 110.817 685.313 111.317 685.313 111.317V117.317L675.313 116.817L671.813 113.567L661.938 112.192C661.938 112.192 646.688 114.567 645.938 105.192L642.938 104.942C642.938 104.942 631.813 103.692 642.438 123.817C642.438 123.817 659.563 152.817 658.063 185.317L670.063 174.817C670.063 174.817 677.702 166.567 687.757 167.567C687.757 167.567 710.313 169.317 734.563 190.067L732.313 194.067C732.313 194.067 703.063 171.817 686.563 173.317C686.563 173.317 682.063 172.817 677.063 177.817L659.813 192.317L691.813 194.067C691.813 194.067 714.147 198.318 729.813 230.484L725.979 234.65C725.979 234.65 710.313 203.817 690.979 200.317C690.979 200.317 681.979 198.816 672.979 202.15L663.979 206.15C663.979 206.15 628.98 200.814 597.147 236.15L589.313 152.317Z" fill="#F9ED32"/>
<path d="M517.091 301.87C518.521 302.545 520.003 303.175 521.566 303.76C544.611 312.4 564.089 305.578 581.275 299.562C597.849 293.756 612.164 288.744 628.834 296.601C630.172 297.231 631.531 297.997 632.883 298.782C610.26 324.786 572.338 333.787 539.618 318.365C530.471 314.053 522.556 308.201 515.992 301.284C516.368 301.472 516.702 301.687 517.091 301.87Z" fill="#8EC640"/>
<path d="M510.98 290.536C510.98 290.536 546.713 312.829 582.968 294.451C582.968 294.451 646.922 250.295 669.582 272.049C669.582 272.049 692.695 292.595 660.215 308.236C660.215 308.236 686.079 334.013 716.717 312.335C716.717 312.335 750.426 289.9 728.36 248.39C728.36 248.39 707.104 209.661 661.931 213.365C594.649 218.871 584.981 298.335 510.98 290.536Z" fill="#42A6DD"/>
<path fill-rule="evenodd" clip-rule="evenodd" d="M460.149 187.068C460.165 190.569 460.434 193.991 463.264 197.246C463.569 195.837 463.758 194.959 464.028 193.712C464.522 198.971 466.717 200.601 471.491 200.127C472.525 200.024 473.682 201.167 475.009 201.853C475.347 201.326 475.78 200.649 476.05 200.227C479.843 200.407 483.42 202.2 487.04 199.503C488.042 198.756 490.352 198.632 491.395 199.285C494.647 201.32 495.201 198.408 496.627 196.948C497.441 196.115 498.397 194.682 499.22 194.729C502.02 194.89 502.733 193.18 503.53 191.03C502.424 191.536 501.422 191.995 500.419 192.453C501.685 188.953 503.615 186.712 507.146 187.105C507.411 187.135 507.593 187.896 507.814 188.317L507.903 188.234C507.242 188.778 506.07 189.262 505.998 189.876C505.154 197.064 499.287 199.612 494.223 202.945C490.901 205.131 487.553 212.765 488.341 216.503C489.934 216.22 491.537 215.936 493.795 215.536C493.295 217.656 492.822 219.659 492.295 221.901C489.895 221.162 488.055 220.425 486.144 220.057C484.425 219.726 482.257 218.982 481.926 221.993C481.895 222.286 481.539 222.678 481.246 222.789C476.686 224.519 472.17 226.388 467.529 227.868C461.283 229.862 459.655 229.351 456.334 223.588C452.555 217.032 448.618 210.438 445.999 203.396C444.633 199.722 445.767 195.033 446.187 190.843C446.287 189.851 447.916 188.667 449.091 188.2C451.844 187.107 454.718 186.261 457.611 185.627C458.303 185.475 459.263 186.545 460.099 187.053L460.149 187.068Z" fill="#070A09"/>
<path fill-rule="evenodd" clip-rule="evenodd" d="M460.099 187.054C461.701 185.841 463.303 184.628 464.341 183.841C462.446 181.425 461.313 179.546 459.736 178.176C459.064 177.593 457.465 178.078 455.346 178.078C455.346 175.143 455.652 171.017 455.265 166.955C454.827 162.358 453.81 157.812 452.947 153.263C452.804 152.507 452.276 151.336 451.74 151.221C447.908 150.4 446.122 148.159 446.525 144.113C447.386 143.978 448.421 143.817 450.642 143.469C448.472 142.263 447.283 141.603 445.902 140.836C446.515 139.663 447.463 137.855 448.185 136.474C446.38 135.513 444.733 135.186 444.263 134.261C443.517 132.788 443.683 131.506 445.73 130.138C447.791 128.76 448.714 125.681 450.402 122.912C450.664 122.912 451.958 122.519 452.513 122.994C453.662 123.973 455.45 125.982 455.134 126.554C454.316 128.04 451.777 130.252 451.204 129.926C447.629 127.89 448.817 130.208 449.019 131.921C449.11 132.69 448.903 133.493 448.749 135.189C452.281 129.916 455.507 136.38 458.135 134.212C458.681 137.562 459.215 140.837 459.787 144.354C471.622 145.032 483.884 145.733 496.144 146.435C496.076 146.171 496.005 145.908 495.937 145.644C496.925 146.607 497.916 147.57 499.315 148.934C498.693 149.328 497.506 150.554 496.968 150.316C495.935 149.858 495.267 148.57 493.73 146.8C488.857 147.108 483.069 147.502 477.276 147.819C475.676 147.906 473.744 148.327 472.517 147.627C468.861 145.537 465.031 146.534 461.262 146.261C457.616 145.997 459.33 147.699 460.107 149.267C459.062 149.601 458.042 149.929 456.955 150.278C459.553 151.775 461.893 153.245 464.348 154.485C465.534 155.083 466.918 155.432 468.246 155.57C473.248 156.091 474.226 157.13 474.387 162.481L474.45 162.417C472.176 163.333 470.327 164.795 468.369 166.252C466.34 167.762 462.832 167.286 460.142 167.656C460.416 168.525 460.581 169.896 461.253 170.943C461.963 172.048 463.534 173.829 464.077 173.62C468.333 171.981 469.893 174.255 470.909 177.725C471.001 178.042 471.342 178.287 472.088 179.209C473.411 177.678 474.827 176.42 475.771 174.875C478.382 170.597 481.169 170.386 485.086 173.598C487.067 175.223 489.898 175.815 493.343 177.305C492.334 172.212 492.178 168.365 496.917 167.746C498.791 167.501 500.913 169.159 502.923 169.95C502.859 170.306 502.796 170.662 502.734 171.018C503.555 170.334 504.378 169.65 505.283 168.897C505.724 171.643 506.138 174.216 506.455 176.193C503.328 176.383 499.894 176.591 496 176.827C495.271 179.39 494.449 182.274 493.352 186.129C489.198 181.463 485.372 177.166 481.287 172.576C480.142 173.404 478.796 174.377 477.45 175.35C477.524 175.625 477.599 175.901 477.675 176.176C479.109 176.02 480.542 175.864 482.648 175.636C480.62 180.798 473.654 180.023 471.759 186.03C472.948 185.509 473.732 184.824 474.302 184.97C478.792 186.116 483.781 184.09 487.964 187.124C488.403 187.442 488.978 187.573 489.488 187.791C489.032 188.409 488.483 189.611 488.133 189.556C483.779 188.873 479.927 193.035 475.128 190.422C473.271 189.411 470.058 191.125 467.458 191.145C466.297 191.154 465.101 190.092 463.967 189.436C462.677 188.69 461.44 187.855 460.164 187.064C460.149 187.068 460.099 187.054 460.099 187.054ZM463.671 157.713C463.857 157.312 464.042 156.91 464.228 156.509C462.783 155.469 461.417 154.26 459.836 153.503C459.414 153.301 457.933 154.341 457.675 155.071C457.469 155.654 458.238 157.178 458.823 157.331C460.366 157.735 462.046 157.621 463.671 157.713Z" fill="#070A09"/>
<path fill-rule="evenodd" clip-rule="evenodd" d="M430.839 232.031C427.993 233.786 426.124 235.052 430.425 236.135C432.021 236.536 433.269 238.314 435.045 239.765C434.008 241.179 432.821 242.791 431.642 244.408C430.614 245.818 429.591 247.232 428.167 249.196C427.059 245.857 425.923 242.435 424.728 238.836C424.119 238.357 422.607 237.762 422.142 236.704C420.331 232.592 418.854 228.335 418 223.864C418.983 225.55 419.968 227.236 421.308 229.532C422.379 224.056 423.344 219.132 424.308 214.208C424.144 220.764 423.015 227.895 430.839 232.031Z" fill="#070A09"/>
<path fill-rule="evenodd" clip-rule="evenodd" d="M474.388 162.479C474.952 162.276 475.517 162.074 476.041 161.886C475.547 160.024 475.062 158.2 474.295 155.308C475.877 156.473 476.501 156.932 477.433 157.617C477.374 156.549 477.331 155.758 477.285 154.913C479.828 154.19 482.375 153.465 484.922 152.741C485.082 153.013 485.24 153.284 485.401 153.556C483.9 154.523 482.399 155.489 480.901 156.452C483.786 160.931 493.764 160.852 498.124 156.311C497.923 158.699 497.72 161.087 497.507 163.605C493.671 162.299 490.687 163.543 488.653 167.408C488.301 168.076 486.42 168.641 485.713 168.297C482.779 166.866 480.043 165.036 477.194 163.425C476.362 162.954 475.394 162.723 474.471 162.399C474.451 162.415 474.388 162.479 474.388 162.479Z" fill="#070A09"/>
<path fill-rule="evenodd" clip-rule="evenodd" d="M513.374 150.916C516.809 150.586 520.612 144.955 523.354 151.358C522.515 152.682 521.608 154.113 521.102 154.912C517.684 157.713 514.696 160.162 511.969 162.397C511.44 160.33 511.492 158.481 510.594 157.521C509.334 156.173 507.369 155.485 505.41 154.875C505.004 152.945 504.705 150.737 501.596 150.543C502.346 150.543 503.096 150.543 504.039 150.543C504.039 148.484 504.039 146.539 504.039 144.199C504.944 144.848 505.998 145.212 506.075 145.724C506.51 148.588 508.33 147.624 509.922 147.265C512.941 146.582 513.975 147.535 513.374 150.916Z" fill="#070A09"/>
<path fill-rule="evenodd" clip-rule="evenodd" d="M460.372 255.306C457.306 252.37 454.001 249.641 451.243 246.442C448.464 243.217 446.227 239.526 443.753 236.04C443.401 236.202 443.05 236.365 442.698 236.526C444.543 240.989 446.387 245.453 448.227 249.903C442.815 248.801 436.071 224.662 438.224 215.807C439.25 219.721 440.301 224.501 441.816 229.13C442.405 230.931 443.951 232.463 445.213 233.992C449.312 238.952 453.512 243.829 457.605 248.794C459.014 250.504 460.221 252.38 461.521 254.181C461.138 254.556 460.755 254.931 460.372 255.306Z" fill="#070A09"/>
<path fill-rule="evenodd" clip-rule="evenodd" d="M443.23 210.169C443.793 210.879 444.635 211.506 444.876 212.314C447.539 221.219 453.572 228.097 458.383 235.757C461.664 240.981 468.051 242.395 470.726 247.825C470.831 248.039 470.927 248.258 471.112 248.657C467.415 252.531 464.551 245.213 462.018 247.477C461.688 246.022 461.762 244.252 460.944 243.139C458.661 240.034 455.495 237.493 453.607 234.197C449.792 227.534 446.53 220.549 443.208 213.616C442.756 212.671 443.271 211.263 443.337 210.07L443.23 210.169Z" fill="#070A09"/>
<path fill-rule="evenodd" clip-rule="evenodd" d="M507.128 196.662C506.431 200.674 506.163 204.83 504.884 208.648C504.042 211.164 501.917 213.356 500.024 215.369C499.144 216.305 497.446 216.471 496.119 216.985C495.928 215.778 495.207 214.317 495.641 213.411C496.984 210.619 498.734 208.017 500.409 205.394C500.775 204.819 501.595 204.546 502.012 203.989C502.803 202.934 503.539 201.819 504.137 200.647C504.805 199.341 505.293 197.943 505.86 196.585C506.282 196.61 506.705 196.636 507.128 196.662Z" fill="#070A09"/>
<path fill-rule="evenodd" clip-rule="evenodd" d="M508.999 235.583C507.228 227.802 509.081 220.592 510.293 213.312C511.099 208.465 511.493 203.55 512.216 197.452C513.009 199.268 513.911 200.35 513.855 201.379C513.619 205.718 513.171 210.051 512.661 214.369C511.953 220.354 511.159 226.33 510.303 232.296C510.151 233.344 509.515 234.321 508.999 235.583Z" fill="#070A09"/>
<path fill-rule="evenodd" clip-rule="evenodd" d="M507.813 188.317C508.496 188.515 509.512 188.494 509.807 188.945C512.645 193.288 517.026 195.433 521.493 197.541C523.139 198.317 524.615 199.454 526.169 200.426C525.893 200.979 525.616 201.531 525.341 202.084C521.8 200.71 518.232 199.406 514.734 197.929C513.377 197.355 512.277 196.09 510.898 195.663C506.714 194.37 506.345 191.74 507.902 188.236C507.902 188.234 507.813 188.317 507.813 188.317Z" fill="#070A09"/>
<path fill-rule="evenodd" clip-rule="evenodd" d="M443.337 210.069C442.785 208.834 442.233 207.599 441.987 207.049C440.819 206.633 440.133 206.423 439.474 206.147C438.676 205.813 437.895 205.436 437.119 205.054C436.304 204.653 434.798 204.166 434.827 203.817C434.916 202.728 435.294 201.275 436.091 200.706C438.039 199.312 440.286 198.336 441.994 197.416C442.422 201.821 442.827 205.993 443.231 210.166C443.23 210.169 443.337 210.069 443.337 210.069Z" fill="#070A09"/>
<path fill-rule="evenodd" clip-rule="evenodd" d="M497.405 131.204C499.099 131.682 500.827 132.066 502.477 132.663C503.938 133.193 505.473 133.758 506.672 134.696C507.399 135.264 507.854 136.569 507.862 137.548C507.87 138.382 507.217 139.401 506.547 139.977C506.281 140.206 505.121 139.552 504.469 139.142C502.602 137.97 500.678 136.848 498.994 135.444C498.002 134.616 497.425 133.291 496.66 132.19C496.909 131.86 497.158 131.532 497.405 131.204Z" fill="#070A09"/>
<path fill-rule="evenodd" clip-rule="evenodd" d="M512.478 138.745C512.435 138.695 511.961 138.154 511.489 137.616C513.688 137.444 515.888 137.27 518.087 137.096C518.322 137.363 518.557 137.629 518.792 137.896C516.219 140.167 513.645 142.437 511.071 144.706C510.592 144.29 510.114 143.873 509.634 143.457C510.471 142.07 511.308 140.685 512.478 138.745Z" fill="#070A09"/>
<path fill-rule="evenodd" clip-rule="evenodd" d="M459.443 120.367C463.79 122.988 464.194 124.202 462.101 125.58C460.5 124.419 459.067 123.378 457.487 122.233C457.665 122.002 458.094 121.443 458.713 120.636C457.55 120.545 456.539 120.466 455.528 120.387C455.454 120.007 455.38 119.626 455.306 119.245C457.526 118.564 459.744 117.883 461.965 117.202C462.144 117.63 462.322 118.056 462.502 118.484C461.615 119.031 460.729 119.576 459.443 120.367Z" fill="#070A09"/>
<path fill-rule="evenodd" clip-rule="evenodd" d="M471.825 126.039C470.897 126.847 469.705 127.571 469.802 127.852C470.836 130.858 469.062 130.599 467.236 130.123C465.607 129.698 463.668 129.322 464.34 126.86C464.909 124.77 466.156 124.124 468.243 125.147C469.198 125.614 470.349 125.687 471.825 126.039Z" fill="#070A09"/>
<path fill-rule="evenodd" clip-rule="evenodd" d="M477.795 223.668C481.612 223.668 484.624 223.668 487.767 223.668C485.667 227.833 483.157 227.924 477.795 223.668Z" fill="#070A09"/>
<path fill-rule="evenodd" clip-rule="evenodd" d="M432.987 250.289C434.36 249.572 435.735 248.857 437.983 247.685C437.741 250.199 437.571 251.956 437.403 253.711C437.054 253.864 436.707 254.018 436.358 254.17C435.197 253.09 434.036 252.01 432.873 250.935C432.897 250.712 432.936 250.496 432.987 250.289Z" fill="#070A09"/>
<path fill-rule="evenodd" clip-rule="evenodd" d="M432.987 250.289C432.935 250.496 432.897 250.712 432.873 250.935C432.298 251.253 431.724 251.575 431.148 251.897C430.961 251.725 430.776 251.555 430.589 251.383C432.741 248.178 434.894 244.973 437.176 241.574C437.855 245.555 434.317 247.423 432.987 250.289Z" fill="#070A09"/>
<path fill-rule="evenodd" clip-rule="evenodd" d="M503.21 129.472C501.288 128.72 499.298 127.941 496.612 126.89C497.03 126.537 497.703 125.486 498.483 125.399C501.806 125.03 503.044 126.364 503.21 129.472Z" fill="#070A09"/>
<path fill-rule="evenodd" clip-rule="evenodd" d="M488.823 152.555C491.124 152.349 493.423 152.063 495.727 151.988C496.387 151.967 497.069 152.554 497.74 152.862C497.075 153.406 496.346 154.472 495.753 154.402C493.394 154.121 491.077 153.485 488.744 152.981C488.771 152.838 488.797 152.696 488.823 152.555Z" fill="#070A09"/>
<path fill-rule="evenodd" clip-rule="evenodd" d="M480.698 122.434C478.569 122.434 476.441 122.434 473.39 122.434C476.248 119.15 478.43 119.794 480.664 121.199C480.676 121.611 480.687 122.022 480.698 122.434Z" fill="#070A09"/>
<path fill-rule="evenodd" clip-rule="evenodd" d="M482.409 149.123C486.083 149.123 489.759 149.123 493.432 149.123C493.441 149.296 493.449 149.469 493.455 149.643C489.779 149.643 486.101 149.643 482.424 149.643C482.42 149.469 482.415 149.296 482.409 149.123Z" fill="#070A09"/>
<path fill-rule="evenodd" clip-rule="evenodd" d="M498.02 188.255C498.48 186.298 498.635 185.207 499.015 184.199C499.212 183.675 499.805 183.3 500.219 182.858C500.823 183.81 501.429 184.762 502.033 185.713C500.766 186.516 499.498 187.319 498.02 188.255Z" fill="#070A09"/>
<path fill-rule="evenodd" clip-rule="evenodd" d="M500.22 154.739C502.997 157.174 503.017 159.689 500.22 161.901C500.22 159.417 500.22 157.372 500.22 154.739Z" fill="#070A09"/>
<path fill-rule="evenodd" clip-rule="evenodd" d="M476.093 134.47C478.423 133.383 480.753 132.295 483.083 131.208C483.192 131.428 483.302 131.648 483.411 131.869C481.237 133.269 479.062 134.67 476.888 136.071C476.622 135.538 476.357 135.004 476.093 134.47Z" fill="#070A09"/>
<path fill-rule="evenodd" clip-rule="evenodd" d="M555.155 57.3059C565.269 57.3059 575.384 57.3159 585.499 57.2959C587.101 57.2929 588.556 57.8309 589.985 58.3979C595.536 60.5969 599.283 64.5459 600.833 70.3319C601.893 74.2859 601.653 78.2829 599.729 81.9559C597.829 85.5849 594.623 87.5849 590.595 88.1369C586.627 88.6799 583.028 87.7349 579.85 85.1999C578.137 83.8329 577.056 82.1849 577.02 79.9719C576.999 78.5639 576.93 77.1219 577.184 75.7509C577.675 73.1099 580.354 71.3819 582.774 71.9579C583.762 72.1929 584.531 72.7509 585.112 73.5779C585.528 74.1689 585.559 74.7829 585.137 75.3639C584.727 75.9279 584.248 76.4399 583.82 76.9909C582.868 78.2179 582.947 79.7599 584.003 80.8459C585.091 81.9639 586.732 82.1159 587.985 81.2839C592.943 77.9929 592.566 70.5339 587.376 67.2889C581.546 63.6429 574.297 66.4989 571.808 72.2669C571.022 74.0869 570.819 75.9729 570.722 77.9339C570.537 81.7039 571.776 84.9699 574.005 87.8799C574.913 89.0659 576.06 90.1019 577.228 91.0459C578.166 91.8049 578.734 92.6449 578.737 93.8379C578.739 94.4759 578.75 95.1289 578.623 95.7479C578.431 96.6839 578.019 97.3469 576.754 97.3559C572.91 97.3809 569.066 97.4709 565.224 97.4669C554.332 97.4559 543.442 97.4109 532.551 97.3799C531.566 97.3779 530.85 96.7539 530.803 95.7709C530.755 94.7439 530.748 93.7129 530.787 92.6859C530.797 92.4509 531.039 92.1929 531.23 92.0029C532.646 90.5959 534.162 89.2779 535.482 87.7869C537.158 85.8939 538.285 83.6259 538.607 81.1259C539.052 77.6709 538.972 74.2509 537.101 71.0789C533.642 65.2179 525.752 63.8519 520.816 68.3609C520.097 69.0179 519.517 69.8499 518.969 70.6639C517.962 72.1609 518.092 73.8859 518.161 75.5729C518.265 78.1409 519.649 79.9769 521.697 81.3389C522.967 82.1829 524.692 81.8689 525.616 80.7709C526.602 79.5969 526.593 78.0769 525.583 76.8389C525.289 76.4779 524.964 76.1409 524.68 75.7729C524.006 74.9009 524.007 74.2239 524.658 73.3319C525.984 71.5119 528.793 71.3169 530.612 72.9009C532.033 74.1389 532.574 75.7509 532.63 77.5639C532.764 81.9139 530.484 85.4179 526.406 87.1679C521.062 89.4609 515.028 88.2299 511.232 84.0719C509.61 82.2959 508.888 80.1139 508.497 77.8129C507.771 73.5519 508.304 69.4659 510.651 65.7759C514.004 60.5069 518.781 57.4779 525.103 57.3829C533.431 57.2579 541.76 57.3159 550.088 57.2979C551.777 57.2939 553.466 57.2979 555.155 57.2979C555.155 57.2989 555.155 57.3029 555.155 57.3059Z" fill="white"/>
<path fill-rule="evenodd" clip-rule="evenodd" d="M544.509 273.809V101.579H532.82L521.98 280.635C530.421 279.695 537.776 277.279 544.509 273.809Z" fill="white"/>
<path fill-rule="evenodd" clip-rule="evenodd" d="M560.407 263.102V101.579H549.278V271.113C553.137 268.751 556.814 266.052 560.407 263.102Z" fill="white"/>
<path fill-rule="evenodd" clip-rule="evenodd" d="M579.218 245.633C581.191 243.693 583.193 241.725 585.233 239.754L576.869 101.579H565.178V259.015C569.849 254.85 574.454 250.321 579.218 245.633Z" fill="white"/>
</g>
<defs>
<clipPath id="clip0_416_22">
<rect width="793.257" height="383.294" fill="white"/>
</clipPath>
</defs>
</svg>
